HIERARCHY
ROOT locator2
{
  OFFSET 53.6172 30.1899 0.816905
  CHANNELS 6 Xposition Yposition Zposition Zrotation Xrotation Yrotation
  JOINT koshi
  {
    OFFSET 0 0 0
    CHANNELS 6 Xposition Yposition Zposition Zrotation Xrotation Yrotation
    JOINT sippo01
    {
      OFFSET 0 42.8363 -0.548134
      CHANNELS 6 Xposition Yposition Zposition Zrotation Xrotation Yrotation
      JOINT sippo02
      {
        OFFSET 0 44.0461 -3.28882
        CHANNELS 6 Xposition Yposition Zposition Zrotation Xrotation Yrotation
        JOINT sippo03
        {
          OFFSET 0 34.1929 -2.46662
          CHANNELS 6 Xposition Yposition Zposition Zrotation Xrotation Yrotation
          JOINT sippo04
          {
            OFFSET 0 30.0959 -1.75404
            CHANNELS 6 Xposition Yposition Zposition Zrotation Xrotation Yrotation
            JOINT sippo05
            {
              OFFSET 0 28.3637 -1.75404
              CHANNELS 6 Xposition Yposition Zposition Zrotation Xrotation Yrotation
              JOINT sippo06
              {
                OFFSET 0 31.6071 -3.2043
                CHANNELS 6 Xposition Yposition Zposition Zrotation Xrotation Yrotation
                End Site
                {
                  OFFSET 0 0 0
                }
              }
            }
          }
        }
      }
    }
    JOINT R_momo
    {
      OFFSET -27.891 13.5892 3.92723
      CHANNELS 6 Xposition Yposition Zposition Zrotation Xrotation Yrotation
      JOINT R_hiza
      {
        OFFSET 0 28.01 1.8232
        CHANNELS 6 Xposition Yposition Zposition Zrotation Xrotation Yrotation
        JOINT R_ashi
        {
          OFFSET 0 24.3992 -2.49174
          CHANNELS 6 Xposition Yposition Zposition Zrotation Xrotation Yrotation
          End Site
          {
            OFFSET 0 0 0
          }
        }
      }
    }
    JOINT L_momo
    {
      OFFSET 27.891 13.5892 3.92714
      CHANNELS 6 Xposition Yposition Zposition Zrotation Xrotation Yrotation
      JOINT L_hiza
      {
        OFFSET 0 28.0098 1.82319
        CHANNELS 6 Xposition Yposition Zposition Zrotation Xrotation Yrotation
        JOINT L_ashi
        {
          OFFSET 0 24.3992 -2.49171
          CHANNELS 6 Xposition Yposition Zposition Zrotation Xrotation Yrotation
          End Site
          {
            OFFSET 0 0 0
          }
        }
      }
    }
  }
  JOINT hara
  {
    OFFSET 0 2.15392 0
    CHANNELS 6 Xposition Yposition Zposition Zrotation Xrotation Yrotation
    JOINT mune
    {
      OFFSET 0 62.0609 0.472494
      CHANNELS 6 Xposition Yposition Zposition Zrotation Xrotation Yrotation
      JOINT R_kata
      {
        OFFSET 22.6695 9.65301 -5.3622
        CHANNELS 6 Xposition Yposition Zposition Zrotation Xrotation Yrotation
        JOINT R_hiji
        {
          OFFSET 0 25.813 1.69098
          CHANNELS 6 Xposition Yposition Zposition Zrotation Xrotation Yrotation
          JOINT R_te
          {
            OFFSET 0 28.5636 -0.966307
            CHANNELS 6 Xposition Yposition Zposition Zrotation Xrotation Yrotation
            End Site
            {
              OFFSET 0 0 0
            }
          }
        }
      }
      JOINT L_kata
      {
        OFFSET -22.6695 9.65298 -5.3622
        CHANNELS 6 Xposition Yposition Zposition Zrotation Xrotation Yrotation
        JOINT L_hiji
        {
          OFFSET 0 25.813 1.69102
          CHANNELS 6 Xposition Yposition Zposition Zrotation Xrotation Yrotation
          JOINT L_te
          {
            OFFSET 0 28.5636 -0.966295
            CHANNELS 6 Xposition Yposition Zposition Zrotation Xrotation Yrotation
            End Site
            {
              OFFSET 0 0 0
            }
          }
        }
      }
      JOINT kubi
      {
        OFFSET 0 23.1438 -0.944988
        CHANNELS 6 Xposition Yposition Zposition Zrotation Xrotation Yrotation
        JOINT atama
        {
          OFFSET 0 20.8625 4.12737
          CHANNELS 6 Xposition Yposition Zposition Zrotation Xrotation Yrotation
          JOINT ago
          {
            OFFSET 0 7.552 -7.58201
            CHANNELS 6 Xposition Yposition Zposition Zrotation Xrotation Yrotation
            End Site
            {
              OFFSET 0 0 0
            }
          }
        }
      }
    }
  }
}
MOTION
Frames:	8
Frame Time:	0.0333333
0 26.5759 -1.11588e-005 -90 -3.50835e-015 -90 0 0 0 -174.666 3.09372 0.502675 -4.76837e-007 42.8363 -0.548138 2.96553 -15.9213 3.73707 -9.53674e-007 44.0461 -3.28883 5.39897 9.40521 -5.26442 -1.90735e-006 34.1929 -2.46662 6.42252 1.07545 -1.69471 -3.8147e-006 30.0959 -1.75404 6.02316 9.41185 -0.737262 -1.52588e-005 28.3637 -1.75404 9.46229 -5.79852 5.77075 -7.62939e-006 31.6071 -3.2043 5.23338 -6.13592 -5.40291 -27.891 13.5892 3.92723 117.509 -18.6571 -48.4391 7.62939e-006 28.01 1.8232 12.018 -82.304 -3.94537 -7.10543e-015 24.3992 -2.49173 -149.816 63.0187 -167.615 27.891 13.5892 3.92713 -102.222 -21.3535 59.5738 7.10543e-015 28.0098 1.82319 -3.59311 -68.6381 9.50206 0 24.3992 -2.49173 140.896 67.2572 166.743 6.07685e-007 2.15392 3.55271e-015 5.4806e-008 -0.413068 -5.4806e-008 1.75087e-005 62.0609 0.4725 6.95874e-040 -2.62894e-017 1.51661e-021 22.6695 9.65299 -5.36221 -148.412 2.78042 46.4882 7.10543e-015 25.813 1.69098 179.965 -77.8755 179.748 3.8147e-006 28.5636 -0.966314 40.9781 13.225 -94.408 -22.6695 9.65298 -5.3622 130.758 -5.3526 -52.4279 0 25.813 1.69103 -179.768 -75.3149 -178.036 3.8147e-006 28.5636 -0.966297 -44.3103 34.5238 110.052 6.57607e-006 23.1438 -0.944992 -0.0439578 -4.03489 -0.123571 1.39698e-009 20.8625 4.12738 -0.0198187 -4.00069 -0.000692206 -1.38778e-017 7.55202 -7.58201 -1.07929e-005 4.26443 1.07918e-005 
1.12448 26.7785 0.730328 -90 -3.50835e-015 -90 0 0 0 -174.564 2.80418 0.502983 -4.76837e-007 42.8363 -0.548138 2.72949 -15.2191 3.8101 -9.53674e-007 44.0461 -3.28883 4.99026 9.60894 -4.89202 -1.88197e-006 34.1929 -2.46662 5.89411 1.86299 -1.18587 -3.64341e-006 30.0959 -1.75404 5.983 9.82003 -0.975639 -1.50634e-005 28.3637 -1.75404 9.37645 -5.52795 5.73197 -7.43869e-006 31.6071 -3.2043 5.21296 -5.35433 -5.9024 -27.891 13.5892 3.92723 116.012 -20.1241 -49.0965 7.62939e-006 28.01 1.8232 14.5493 -83.4215 -2.33004 0 24.3992 -2.49173 -151.539 60.157 -166.658 27.891 13.5892 3.92713 -99.9454 -21.2565 61.8094 0 28.0098 1.82319 -3.05579 -65.7253 9.41558 -1.77296e-008 24.3992 -2.49173 136.889 70.5828 168.624 6.07685e-007 2.15392 0 0.197714 -0.963382 -0.198678 -9.09162e-013 62.0609 0.4725 -4.86366e-033 5.60742e-015 4.96962e-017 22.6695 9.653 -5.36221 -147.748 5.36039 50.5015 -7.10543e-015 25.813 1.69098 179.963 -74.1641 -179.854 3.79971e-006 28.5636 -0.966314 31.2056 16.0679 -92.5486 -22.6695 9.65298 -5.3622 132.973 -5.01935 -54.2198 0 25.813 1.69103 -179.768 -75.3134 -178.039 3.81472e-006 28.5636 -0.966297 -41.8789 32.3923 108.493 -1.02263e-012 23.1438 -0.944992 -0.316766 -2.28727 1.498 1.39707e-009 20.8625 4.12738 -0.219832 -2.08981 1.39694 -7.61491e-009 7.55203 -7.58201 -5.27706e-007 3.01436 1.00308e-005 
2.22713 26.9772 0.732924 -90 -3.50835e-015 -90 0 0 0 -174.465 2.52272 0.504225 -4.76837e-007 42.8363 -0.548138 2.49906 -14.5276 3.88769 -9.53674e-007 44.0461 -3.28883 4.58647 9.80968 -4.5216 -1.85703e-006 34.1929 -2.46662 5.37609 2.63687 -0.6727 -3.47616e-006 30.0959 -1.75404 5.94399 10.219 -1.20812 -1.48694e-005 28.3637 -1.75404 9.29173 -5.25997 5.69428 -7.2441e-006 31.6071 -3.2043 5.19406 -4.58922 -6.39078 -27.891 13.5892 3.92723 113.914 -21.0546 -50.015 7.62939e-006 28.01 1.8232 13.7873 -82.8502 -4.01523 7.10543e-015 24.3992 -2.49173 -151.74 58.6984 -166.604 27.891 13.5892 3.92713 -98.5593 -21.1558 63.6609 -7.10543e-015 28.0098 1.82319 -2.90888 -65.0873 9.24465 -1.82219e-008 24.3992 -2.49173 133.88 72.4865 169.951 6.07685e-007 2.15392 -3.55271e-015 -0.192282 -1.50199 -0.40277 0 62.0609 0.4725 -2.48481e-017 -4.60388e-015 -2.48481e-016 22.6695 9.653 -5.36221 -145.694 7.70499 55.386 1.42109e-014 25.813 1.69098 179.959 -70.5251 -179.464 3.77785e-006 28.5636 -0.966314 20.0155 18.7877 -89.0308 -22.6695 9.65298 -5.3622 134.877 -2.99662 -54.6249 -7.10543e-015 25.813 1.69103 -179.775 -75.1563 -178.342 3.81732e-006 28.5636 -0.966297 -41.3399 30.8465 106.265 -1.00331e-012 23.1438 -0.944992 -0.406206 -0.647426 3.1053 1.39705e-009 20.8625 4.12738 -0.120523 -0.216006 2.8805 -3.5329e-009 7.55203 -7.58201 -1.00235e-005 1.78917 3.29926e-007 
3.30383 27.1779 0.689933 -90 -3.50835e-015 -90 0 0 0 -174.364 2.23606 0.50648 -4.76837e-007 42.8363 -0.548138 2.26938 -13.8324 3.97147 -9.53674e-007 44.0461 -3.28883 4.17993 10.0113 -4.14626 -1.83206e-006 34.1929 -2.46662 4.85389 3.41876 -0.145076 -3.30863e-006 30.0959 -1.75404 5.90461 10.6237 -1.44302 -1.46714e-005 28.3637 -1.75404 9.20646 -4.98921 5.65706 -7.04067e-006 31.6071 -3.2043 5.1759 -3.81499 -6.88448 -27.891 13.5892 3.92723 111.758 -21.815 -51.0193 7.62939e-006 28.01 1.8232 12.1613 -81.6613 -6.58398 -7.10543e-015 24.3992 -2.49173 -151.845 58.1661 -166.849 27.891 13.5892 3.92713 -97.7575 -20.7789 64.5847 0 28.0098 1.82319 -2.8328 -64.6039 9.3233 -2.21298e-008 24.3992 -2.49173 130.214 74.3917 172.091 6.07685e-007 2.15392 -3.55271e-015 -0.587021 -2.04647 -0.617371 1.11022e-016 62.0609 0.4725 2.98177e-016 6.24308e-016 1.98785e-016 22.6695 9.653 -5.36221 -142.718 8.53136 60.2481 0 25.813 1.69098 179.951 -69.6189 -179.076 3.75539e-006 28.5636 -0.966314 8.35587 20.0321 -84.824 -22.6695 9.65298 -5.3622 136.692 -1.83555 -54.6459 -7.10543e-015 25.813 1.69103 -179.757 -76.4467 -178.659 3.82049e-006 28.5636 -0.966297 -40.5926 28.7411 104.17 -1.0032e-012 23.1438 -0.944992 -0.587511 1.00836 4.73467 1.39705e-009 20.8625 4.12738 -0.016723 1.59729 4.37219 3.96882e-009 7.55203 -7.58201 -2.70122e-006 0.55123 1.29619e-007 
4.39107 27.3805 0.64652 -90 -3.50835e-015 -90 0 0 0 -174.262 1.94669 0.510233 -4.76837e-007 42.8363 -0.548138 2.03833 -13.1275 4.06217 -9.53674e-007 44.0461 -3.28883 3.76955 10.2143 -3.76484 -1.80701e-006 34.1929 -2.46662 4.32592 4.21029 0.411952 -3.14108e-006 30.0959 -1.75404 5.86502 11.0324 -1.68008 -1.44696e-005 28.3637 -1.75404 9.11987 -4.71307 5.61996 -6.82826e-006 31.6071 -3.2043 5.15854 -3.03379 -7.3821 -27.891 13.5892 3.92723 109.646 -23.2171 -52.9239 7.62939e-006 28.01 1.8232 10.9327 -80.4557 -8.76544 0 24.3992 -2.49173 -151.944 57.628 -166.861 27.891 13.5892 3.92713 -96.9338 -20.2574 65.5235 7.10543e-015 28.0098 1.82319 -2.84003 -64.4367 9.43157 -2.52868e-008 24.3992 -2.49173 125.016 76.5357 175.857 6.07685e-007 2.15392 0 -1.11658 -2.06283 -0.837554 -1.11022e-016 62.0609 0.4725 3.97569e-016 1.4474e-015 9.93923e-017 22.6695 9.653 -5.36221 -139.692 9.26155 65.0588 -2.84217e-014 25.813 1.69098 179.944 -68.7037 -178.682 3.73104e-006 28.5636 -0.966314 -3.54712 20.5241 -80.2992 -22.6695 9.65298 -5.3622 138.192 -0.583755 -54.7378 -7.10543e-015 25.813 1.69103 -179.735 -77.7508 -178.805 3.82198e-006 28.5636 -0.966297 -39.9385 26.6001 102.116 -1.00298e-012 23.1438 -0.944992 -0.772969 2.53316 6.26154 1.39705e-009 20.8625 4.12738 0.0837844 3.1866 5.97172 1.43085e-008 7.55203 -7.58201 -9.89658e-006 -0.699483 9.8954e-006 
5.45721 27.5792 0.60395 -90 -3.50835e-015 -90 0 0 0 -174.163 1.66538 0.514416 -4.76837e-007 42.8363 -0.548138 1.81319 -12.4355 4.15684 -9.53674e-007 44.0461 -3.28883 3.36408 10.4143 -3.38564 -1.78243e-006 34.1929 -2.46662 3.80831 4.98647 0.967348 -2.9783e-006 30.0959 -1.75404 5.82644 11.4333 -1.91195 -1.42703e-005 28.3637 -1.75404 9.03602 -4.44473 5.58471 -6.61403e-006 31.6071 -3.2043 5.14258 -2.26763 -7.86961 -27.891 13.5892 3.92723 107.457 -24.4094 -53.9858 7.62939e-006 28.01 1.8232 10.0003 -79.2702 -10.6332 7.10543e-015 24.3992 -2.49173 -152.037 57.1 -166.876 27.891 13.5892 3.92713 -96.163 -19.7198 66.4306 0 28.0098 1.82319 -2.87798 -64.1152 9.82914 -3.47811e-008 24.3992 -2.49173 118.469 78.6461 -178.932 6.07685e-007 2.15392 -3.55271e-015 -1.63463 -2.07724 -1.05306 -1.11022e-016 62.0609 0.4725 3.14663e-032 4.53478e-015 -3.97569e-016 22.6695 9.653 -5.36221 -136.712 9.85866 69.6881 1.42109e-014 25.813 1.69098 179.937 -67.8056 -178.295 3.70567e-006 28.5636 -0.966315 -15.2318 20.2095 -75.6655 -22.6695 9.65298 -5.3622 139.637 0.702127 -53.8237 7.10543e-015 25.813 1.69103 -179.709 -79.0301 -178.943 3.82343e-006 28.5636 -0.966297 -39.8025 24.3592 100.326 -1.0032e-012 23.1438 -0.944992 -1.13498 4.47069 7.54604 1.39705e-009 20.8625 4.12738 0.0836669 4.43558 7.44579 2.27522e-008 7.55203 -7.58201 -9.68707e-006 -1.92529 9.68586e-006 
6.5339 27.7799 0.560959 -90 -3.50835e-015 -90 0 0 0 -174.062 1.37893 0.520047 -4.76837e-007 42.8363 -0.548138 1.58756 -11.7368 4.25801 -9.53674e-007 44.0461 -3.28883 2.95581 10.6151 -3.00135 -1.75785e-006 34.1929 -2.46662 3.28519 5.77075 1.54246 -2.81599e-006 30.0959 -1.75404 5.78787 11.8355 -2.14392 -1.40682e-005 28.3637 -1.75403 8.94382 -3.50824 5.44504 -6.39266e-006 31.6071 -3.2043 5.1273 -1.49381 -8.36162 -27.891 13.5892 3.92723 105.145 -25.418 -55.1544 7.62939e-006 28.01 1.8232 9.24818 -78.0708 -12.3311 0 24.3992 -2.49173 -152.126 56.5663 -166.895 27.891 13.5892 3.92713 -95.4217 -19.1514 67.334 -7.10543e-015 28.0098 1.82319 -2.97273 -64.1127 10.1717 -4.17824e-008 24.3992 -2.49173 109.936 80.6263 -171.705 6.07685e-007 2.15392 0 -2.15771 -2.09163 -1.27113 -3.33067e-016 62.0609 0.4725 7.95139e-016 9.13167e-016 -0 22.6695 9.653 -5.36221 -133.69 10.345 74.2826 -7.10543e-015 25.813 1.69098 179.931 -66.8995 -177.904 3.67862e-006 28.5636 -0.966315 -24.8492 19.3989 -71.7858 -22.6695 9.65298 -5.3622 141.092 1.13092 -53.7144 -7.10543e-015 25.813 1.69103 -179.674 -80.3221 -179.076 3.8249e-006 28.5636 -0.966297 -39.7418 22.1103 98.5277 -1.00364e-012 23.1438 -0.944992 -1.7763 6.12458 8.76502 1.39705e-009 20.8625 4.12738 -0.325066 6.09156 8.67973 2.11947e-008 7.55203 -7.58201 6.30544e-009 -3.99671 9.37273e-008 
7.62115 27.9825 0.517547 -90 -3.50835e-015 -90 0 0 0 -173.96 1.0897 0.52665 -4.76837e-007 42.8363 -0.548138 1.36136 -11.0315 4.36581 -9.53674e-007 44.0461 -3.28883 2.5415 10.8182 -2.6089 -1.73309e-006 34.1929 -2.46662 2.75562 6.56399 2.13857 -2.6541e-006 30.0959 -1.75404 5.74884 12.2448 -2.37933 -1.3863e-005 28.3637 -1.75403 8.85403 -2.56456 5.30728 -6.16134e-006 31.6071 -3.2043 5.11283 -0.71229 -8.85805 -27.891 13.5892 3.92723 102.725 -26.2305 -56.4199 7.62939e-006 28.01 1.8232 8.629 -76.8572 -13.9068 2.84217e-014 24.3992 -2.49173 -152.21 56.0297 -166.917 27.891 13.5892 3.92713 -94.711 -18.5523 68.2341 7.10543e-015 28.0098 1.82319 -3.05187 -63.9475 10.6496 -5.2093e-008 24.3992 -2.49173 96.1117 82.3185 -159.135 6.07685e-007 2.15392 0 -2.6859 -2.10591 -1.49153 6.66134e-016 62.0609 0.4725 2.5992e-032 -2.49723e-015 5.96354e-016 22.6695 9.653 -5.36221 -129.476 9.94055 77.2352 3.55271e-014 25.813 1.69098 179.923 -66.7293 -177.512 3.65389e-006 28.5636 -0.966315 -32.4158 19.4259 -68.091 -22.6695 9.65298 -5.3622 142.559 1.5807 -53.6261 -7.10543e-015 25.813 1.69103 -179.628 -81.6267 -179.198 3.82644e-006 28.5636 -0.966297 -39.7546 19.8565 96.7189 -1.00275e-012 23.1438 -0.944992 -2.80056 7.71494 9.45021 1.39705e-009 20.8625 4.12738 -1.15181 7.84135 9.50491 6.0614e-009 7.55203 -7.58201 -8.03301e-007 -6.53774 3.96511e-007 
